<svg xmlns="http://www.w3.org/2000/svg" viewBox="0 0 269.33 196.26"><defs><style>.cls-1,.cls-16{fill:#f6f7ef;}.cls-2{fill:#58c4dc;}.cls-3{fill:#fafbed;}.cls-4{fill:#9414ef;}.cls-5{fill:#44c13d;}.cls-15,.cls-6{fill:#ffb121;}.cls-7{fill:#ff4747;}.cls-8{fill:#38121b;}.cls-9{fill:#ff9022;}.cls-10{fill:#7014c1;}.cls-11{fill:#d82339;}.cls-12{fill:#2c9b34;}.cls-13,.cls-14,.cls-15{font-size:60.2px;font-family:Raleway-Black, Raleway;font-weight:800;}.cls-13,.cls-14{fill:none;stroke-linecap:round;stroke-linejoin:round;}.cls-13{stroke:#f6f7ef;stroke-width:14px;}.cls-14{stroke:#38121b;stroke-width:9px;}.cls-16{font-size:20.71px;font-family:Raleway-Regular, Raleway;}</style></defs><g id="Calque_2" data-name="Calque 2"><g id="Calque_4" data-name="Calque 4"><path class="cls-1" d="M210.94,69.76a13.34,13.34,0,0,0-5-4.4A71.37,71.37,0,0,0,134.81,0H129.1A71.35,71.35,0,0,0,58,65.36,13.35,13.35,0,0,0,50.9,79.85l6.34,32.43a22.31,22.31,0,0,0-5,14.08,6.21,6.21,0,0,0,6.21,6.2H205.42a6.21,6.21,0,0,0,6.21-6.2,22.36,22.36,0,0,0-5-14.08L213,79.86A13.32,13.32,0,0,0,210.94,69.76Z"/><path class="cls-2" d="M129.1,8.42A63.28,63.28,0,0,0,66.23,68.17,9.42,9.42,0,0,1,73.14,75l1.53,6.08c.62-5.41,1.49-8.81,2.43-10.94a5.46,5.46,0,0,1-2.26-7.57L86.52,42.14a6.17,6.17,0,0,1,3.3-2.77V25.18a2.21,2.21,0,0,1,4.41-.1c3.32-.29,7.57.46,9.42,4.54a4,4,0,0,0,4.66,2.54,2.22,2.22,0,0,1,2.49,1.19,2.18,2.18,0,0,1-.59,2.68c-.58.47-5,3.89-9.19,3.89a6.35,6.35,0,0,1-2.43-.45c-1.57-.64-3.12-1.21-4.35-1.64v1.61a6.11,6.11,0,0,1,3.18,2.84l5.38,10,19.68-11.37a18.94,18.94,0,0,1,19,0l19.68,11.37,5.37-10a6.15,6.15,0,0,1,3.18-2.84V37.83c-1.23.43-2.77,1-4.34,1.64a6.4,6.4,0,0,1-2.44.45c-4.19,0-8.61-3.42-9.19-3.89a2.2,2.2,0,0,1-.59-2.68,2.23,2.23,0,0,1,2.5-1.19,4,4,0,0,0,4.65-2.54c1.85-4.08,6.1-4.83,9.42-4.54a2.21,2.21,0,0,1,4.41.1V39.37a6.17,6.17,0,0,1,3.3,2.77l11.69,20.42a5.45,5.45,0,0,1-2.27,7.57c.94,2.13,1.82,5.53,2.43,10.94L190.77,75a9.42,9.42,0,0,1,6.91-6.82A63.29,63.29,0,0,0,134.81,8.42Z"/><ellipse class="cls-3" cx="131.95" cy="38.42" rx="18.68" ry="18.98"/><path class="cls-4" d="M132,54.54h0a19.26,19.26,0,0,0-9.72,2.73l-13.18,7.87a5.56,5.56,0,0,0-.64-2.46l-1.63-3-1.89-3.5,19.79-11.43A14.77,14.77,0,0,1,132,42.77h0a14.76,14.76,0,0,1,7.26,1.95L159,56.15l-1.89,3.5-1.62,3a5.31,5.31,0,0,0-.64,2.46l-13.19-7.87A19.2,19.2,0,0,0,132,54.54Z"/><path class="cls-5" d="M132,89.3h0a10.61,10.61,0,0,0-10.2,10.6v15H108a127,127,0,0,0,.86-13,6.64,6.64,0,0,0-.09-11.65,99.59,99.59,0,0,0-1.29-13.34,35.31,35.31,0,0,0-1.18-5l18.17-10.86A15,15,0,0,1,132,59h0a15,15,0,0,1,7.45,2.07l18.18,10.86a35.31,35.31,0,0,0-1.18,5,101,101,0,0,0-1.3,13.34,6.63,6.63,0,0,0-.08,11.65,124.22,124.22,0,0,0,.86,13H142.16v-15A10.61,10.61,0,0,0,132,89.3Z"/><path class="cls-6" d="M104.5,65.8a1.05,1.05,0,0,1-.9.51h-24a1,1,0,0,1-.89-1.56L90.36,44.33a1.76,1.76,0,0,1,1.58-.91h0a1.75,1.75,0,0,1,1.57.95l1.55,2.87,9.44,17.53A1,1,0,0,1,104.5,65.8Z"/><path class="cls-6" d="M159.41,65.8a1,1,0,0,0,.89.51h24a1,1,0,0,0,.9-1.56L173.54,44.33a1.75,1.75,0,0,0-1.57-.91h0a1.76,1.76,0,0,0-1.57.95l-1.54,2.87-9.44,17.53A1,1,0,0,0,159.41,65.8Z"/><path class="cls-4" d="M104.33,89.43H78.46c.57-11.6,2.2-17.37,3.23-18.5h19.4a8.87,8.87,0,0,1,1.31,3.18A78.24,78.24,0,0,1,104.33,89.43Z"/><path class="cls-4" d="M159.57,89.43h25.88c-.58-11.6-2.21-17.37-3.24-18.5h-19.4a8.73,8.73,0,0,0-1.3,3.18A78,78,0,0,0,159.57,89.43Z"/><path class="cls-7" d="M74.15,107.89a17.71,17.71,0,0,0-3.88.55,18,18,0,0,0-4.82,2L59.16,78.24a5,5,0,0,1,.77-3.75,4.9,4.9,0,0,1,3.2-2.08,5,5,0,0,1,3.91.92,4.86,4.86,0,0,1,1.81,2.74L72.6,90.91a6.64,6.64,0,0,0,1.31,11.16Q74,105.15,74.15,107.89Z"/><path class="cls-7" d="M189.76,107.89a17.71,17.71,0,0,1,3.87.55,18.08,18.08,0,0,1,4.83,2l6.28-32.16a5,5,0,0,0-.76-3.75,5,5,0,0,0-7.11-1.16,4.76,4.76,0,0,0-1.81,2.74L191.3,90.91a6.63,6.63,0,0,1-1.3,11.16C189.94,104.12,189.87,106.06,189.76,107.89Z"/><path class="cls-7" d="M102.69,35.22a8.81,8.81,0,0,1-3.06-3.78c-1-2.11-3.67-2.13-5.39-1.9v3.62c1.37.45,3.64,1.25,6,2.22A3.74,3.74,0,0,0,102.69,35.22Z"/><path class="cls-7" d="M161.22,35.22a8.88,8.88,0,0,0,3.06-3.78c1-2.11,3.67-2.13,5.38-1.9v3.62c-1.36.45-3.64,1.25-6,2.22A3.71,3.71,0,0,1,161.22,35.22Z"/><path class="cls-6" d="M76.88,124.14h-16a14.13,14.13,0,0,1,10.46-11.43,13.83,13.83,0,0,1,3.16-.43A44.7,44.7,0,0,0,76.88,124.14Z"/><path class="cls-6" d="M187,124.14h16a14.11,14.11,0,0,0-10.46-11.43,13.68,13.68,0,0,0-3.16-.43A44.76,44.76,0,0,1,187,124.14Z"/><path class="cls-6" d="M105.92,124.14a28.82,28.82,0,0,0,1.39-4.83h49.28a28.82,28.82,0,0,0,1.39,4.83Z"/><path class="cls-4" d="M104.45,102.73c0,1.35-.1,2.63-.16,3.85-.59,10.45-2.09,16.37-3.2,17.56H81.69c-1.23-1.33-3-8.58-3.36-21.41Z"/><path class="cls-4" d="M159.45,102.73c.05,1.35.1,2.63.17,3.85.58,10.45,2.09,16.37,3.19,17.56h19.4c1.24-1.33,3-8.58,3.36-21.41Z"/><path class="cls-7" d="M107.87,96.08a2.22,2.22,0,0,1-2.21,2.23H76.78a2.23,2.23,0,1,1,0-4.46h28.88A2.23,2.23,0,0,1,107.87,96.08Z"/><path class="cls-7" d="M156,96.08a2.22,2.22,0,0,0,2.22,2.23h28.88a2.23,2.23,0,1,0,0-4.46H158.25A2.23,2.23,0,0,0,156,96.08Z"/><path class="cls-8" d="M129.1,4A67.35,67.35,0,0,0,61.8,68.18a9.35,9.35,0,0,0-7,10.91l6.71,34.36a18.45,18.45,0,0,0-5.27,12.91,2.2,2.2,0,0,0,2.21,2.2H205.42a2.2,2.2,0,0,0,2.21-2.2,18.4,18.4,0,0,0-5.27-12.91l6.72-34.36a9.37,9.37,0,0,0-7-10.91A67.35,67.35,0,0,0,134.81,4ZM132,38.35a19.35,19.35,0,0,0-9.47,2.54L102.8,52.26l-5.38-10a6.11,6.11,0,0,0-3.18-2.84V37.83c1.23.43,2.78,1,4.35,1.64a6.35,6.35,0,0,0,2.43.45c4.2,0,8.61-3.42,9.19-3.89a2.18,2.18,0,0,0,.59-2.68,2.22,2.22,0,0,0-2.49-1.19,4,4,0,0,1-4.66-2.54c-1.85-4.08-6.1-4.83-9.42-4.54a2.21,2.21,0,0,0-4.41.1V39.37a6.17,6.17,0,0,0-3.3,2.77L74.84,62.56a5.46,5.46,0,0,0,2.26,7.57c-.94,2.13-1.81,5.53-2.43,10.94L73.14,75a9.42,9.42,0,0,0-6.91-6.82A63.28,63.28,0,0,1,129.1,8.42h5.71a63.29,63.29,0,0,1,62.87,59.75A9.42,9.42,0,0,0,190.77,75l-1.54,6.08c-.61-5.41-1.49-8.81-2.43-10.94a5.45,5.45,0,0,0,2.27-7.57L177.38,42.14a6.17,6.17,0,0,0-3.3-2.77V25.18a2.21,2.21,0,0,0-4.41-.1c-3.32-.29-7.57.46-9.42,4.54a4,4,0,0,1-4.65,2.54,2.23,2.23,0,0,0-2.5,1.19,2.2,2.2,0,0,0,.59,2.68c.58.47,5,3.89,9.19,3.89a6.4,6.4,0,0,0,2.44-.45c1.57-.64,3.11-1.21,4.34-1.64v1.61a6.15,6.15,0,0,0-3.18,2.84l-5.37,10L141.43,40.89A19.39,19.39,0,0,0,132,38.35Zm0,50.95a10.61,10.61,0,0,0-10.2,10.61v15H108a129.4,129.4,0,0,0,.87-13,6.63,6.63,0,0,0-.1-11.65c-.39-9.22-1.35-14.86-2.47-18.31L124.5,61.06a14.46,14.46,0,0,1,14.91,0l18.18,10.86c-1.13,3.45-2.09,9.09-2.47,18.31a6.63,6.63,0,0,0-.1,11.65,129.7,129.7,0,0,0,.86,13H142.16v-15A10.61,10.61,0,0,0,132,89.3Zm0-34.76a19.26,19.26,0,0,0-9.72,2.73l-13.18,7.87a5.44,5.44,0,0,0-.65-2.46l-3.51-6.53,19.8-11.43a14.44,14.44,0,0,1,14.53,0L159,56.15l-3.51,6.53a5.44,5.44,0,0,0-.65,2.46l-13.18-7.87A19.23,19.23,0,0,0,132,54.54ZM103.6,66.31h-24a1,1,0,0,1-.9-.52,1,1,0,0,1,0-1L90.36,44.33a1.77,1.77,0,0,1,1.57-.92h0a1.79,1.79,0,0,1,1.57,1l11,20.4a1,1,0,0,1-.91,1.54Zm55.81-.51a1,1,0,0,1,0-1l11-20.4a1.81,1.81,0,0,1,1.58-1h0a1.78,1.78,0,0,1,1.58.92l11.68,20.42a1,1,0,0,1-.9,1.56h-24A1,1,0,0,1,159.41,65.8ZM104.33,89.44H78.46c.57-11.61,2.2-17.37,3.24-18.51h19.39C102.13,72.07,103.77,77.84,104.33,89.44Zm58.48-18.51h19.4c1,1.14,2.67,6.9,3.24,18.51H159.57C160.14,77.84,161.78,72.07,162.81,70.93ZM94.24,33.16V29.54c1.72-.23,4.43-.21,5.39,1.9a8.81,8.81,0,0,0,3.06,3.78,3.74,3.74,0,0,1-2.43.16C97.88,34.41,95.61,33.61,94.24,33.16Zm69.4,2.22a3.71,3.71,0,0,1-2.42-.16,8.88,8.88,0,0,0,3.06-3.78c1-2.11,3.67-2.13,5.38-1.9v3.62C168.3,33.61,166,34.41,163.64,35.38ZM59.16,78.24a5,5,0,0,1,9.69-2.17l3.76,14.85a6.61,6.61,0,0,0,1.3,11.14c0,2.06.13,4,.23,5.83a18.24,18.24,0,0,0-8.69,2.51Zm139.3,32.16a18.31,18.31,0,0,0-8.7-2.51c.11-1.82.19-3.77.24-5.83a6.63,6.63,0,0,0,1.3-11.14l3.75-14.85A5,5,0,0,1,204,74.49a4.93,4.93,0,0,1,.76,3.75ZM60.86,124.15a14.12,14.12,0,0,1,13.62-11.87,44.94,44.94,0,0,0,2.39,11.87Zm126.17,0a44.94,44.94,0,0,0,2.39-11.87A14.11,14.11,0,0,1,203,124.15Zm-85.94,0H81.7c-1.24-1.34-3-8.58-3.36-21.43h26.11C104.06,115.57,102.34,122.81,101.09,124.15Zm58.37-21.43h26.1c-.39,12.85-2.11,20.09-3.35,21.43h-19.4C161.57,122.81,159.85,115.57,159.46,102.72ZM76.78,98.31a2.23,2.23,0,1,1,0-4.45h28.87a2.23,2.23,0,1,1,0,4.45Zm81.47,0a2.23,2.23,0,0,1,0-4.45h28.88a2.23,2.23,0,1,1,0,4.45Zm-52.33,25.84a29.1,29.1,0,0,0,1.39-4.85H156.6a28.23,28.23,0,0,0,1.38,4.85Z"/><path class="cls-9" d="M95.08,47.24a4,4,0,0,0-3.46,1.19c-1.31,1.72-8,15.4-7.59,16.57a3.78,3.78,0,0,0,1.65,1.31H79.57a1,1,0,0,1-.89-1.56L90.36,44.33a1.76,1.76,0,0,1,1.58-.91h0a1.75,1.75,0,0,1,1.57.95Z"/><path class="cls-9" d="M168.83,47.24a4,4,0,0,1,3.46,1.19c1.31,1.72,8,15.4,7.58,16.57a3.74,3.74,0,0,1-1.64,1.31h6.1a1,1,0,0,0,.9-1.56L173.54,44.33a1.75,1.75,0,0,0-1.57-.91h0a1.76,1.76,0,0,0-1.57.95Z"/><path class="cls-10" d="M104.29,106.58l-22.12.25s1.16,12.76,3.52,17.31h-4c-1.23-1.33-3-8.58-3.36-21.41h26.12C104.41,104.08,104.35,105.36,104.29,106.58Z"/><path class="cls-10" d="M159.62,106.58l22.12.25s-1.16,12.76-3.52,17.31h4c1.24-1.33,3-8.58,3.36-21.41H159.45C159.5,104.08,159.55,105.36,159.62,106.58Z"/><path class="cls-10" d="M82.79,89.43H78.46c.57-11.6,2.2-17.37,3.23-18.5h19.4a8.87,8.87,0,0,1,1.31,3.18l-18,.06S83.12,85,82.79,89.43Z"/><path class="cls-10" d="M181.12,89.43h4.33c-.58-11.6-2.21-17.37-3.24-18.5h-19.4a8.73,8.73,0,0,0-1.3,3.18l18,.06S180.79,85,181.12,89.43Z"/><path class="cls-11" d="M82.18,98.31h-5.4a2.23,2.23,0,1,1,0-4.46h5.91A15.28,15.28,0,0,0,82.18,98.31Z"/><path class="cls-11" d="M181.73,98.31h5.4a2.23,2.23,0,1,0,0-4.46h-5.91A15.28,15.28,0,0,1,181.73,98.31Z"/><path class="cls-11" d="M70.27,108.44a18,18,0,0,0-4.82,2L59.16,78.24a5,5,0,0,1,.77-3.75,4.9,4.9,0,0,1,3.2-2.08,5,5,0,0,1,3.91.92c-1.46.33-4.41,1.3-4.2,3.63C63.07,79.48,68.37,100.85,70.27,108.44Z"/><path class="cls-11" d="M193.63,108.44a18.08,18.08,0,0,1,4.83,2l6.28-32.16a5,5,0,0,0-.76-3.75,5,5,0,0,0-7.11-1.16c1.45.33,4.4,1.3,4.19,3.63C200.83,79.48,195.53,100.85,193.63,108.44Z"/><path class="cls-9" d="M71.32,112.71c-1.4,1.71-4,5.18-4.61,7.92a16.49,16.49,0,0,0-.41,3.51H60.86A14.13,14.13,0,0,1,71.32,112.71Z"/><path class="cls-9" d="M192.58,112.71c1.41,1.71,4,5.18,4.62,7.92a16.49,16.49,0,0,1,.41,3.51H203A14.11,14.11,0,0,0,192.58,112.71Z"/><path class="cls-10" d="M132,48.35h0c-1.36.16-3.21.43-5.4.91-4,.86-15.84,8-19.77,10.39l-1.89-3.5,19.79-11.43A14.77,14.77,0,0,1,132,42.77h0a14.76,14.76,0,0,1,7.26,1.95L159,56.15l-1.89,3.5c-3.93-2.4-15.81-9.53-19.76-10.39-2.19-.48-4.05-.75-5.4-.91Z"/><path class="cls-12" d="M132,65.1h0a15.91,15.91,0,0,0-5.15,1c-3.46,1.26-14.87,8.09-19.3,10.79a35.31,35.31,0,0,0-1.18-5l18.17-10.86A15,15,0,0,1,132,59h0a15,15,0,0,1,7.45,2.07l18.18,10.86a35.31,35.31,0,0,0-1.18,5c-4.43-2.7-15.84-9.53-19.31-10.79a15.91,15.91,0,0,0-5.14-1Z"/><path class="cls-9" d="M112.73,119.31a20.57,20.57,0,0,1-.61,4.83h-6.2a28.82,28.82,0,0,0,1.39-4.83Z"/><path class="cls-9" d="M151.17,119.31a20.62,20.62,0,0,0,.62,4.83H158a28.82,28.82,0,0,1-1.39-4.83Z"/><path class="cls-1" d="M96.55,53.44c.66,2.07.39,4-.59,4.31s-2.31-1.12-3-3.19-.39-4,.6-4.31S95.9,51.37,96.55,53.44Z"/><path class="cls-1" d="M167.35,53.44c-.65,2.07-.39,4,.6,4.31s2.3-1.12,3-3.19.38-4-.6-4.31S168,51.37,167.35,53.44Z"/><path class="cls-1" d="M98.09,60.23a1.12,1.12,0,1,1-1.4-.73A1.12,1.12,0,0,1,98.09,60.23Z"/><path class="cls-1" d="M165.82,60.23a1.11,1.11,0,1,0,1.4-.73A1.11,1.11,0,0,0,165.82,60.23Z"/><path class="cls-1" d="M101.47,79.05c.21,2-.26,3.75-1.06,3.84s-1.61-1.5-1.83-3.54.26-3.75,1.06-3.83S101.25,77,101.47,79.05Z"/><path class="cls-1" d="M162.44,79.05c-.22,2,.26,3.75,1.05,3.84s1.62-1.5,1.83-3.54-.26-3.75-1.06-3.83S162.65,77,162.44,79.05Z"/><path class="cls-1" d="M101.65,85.69a.94.94,0,1,1-1-.84A.94.94,0,0,1,101.65,85.69Z"/><path class="cls-1" d="M162.25,85.69a.95.95,0,1,0,1-.84A.94.94,0,0,0,162.25,85.69Z"/><ellipse class="cls-1" cx="66.95" cy="81.03" rx="1.45" ry="3.7" transform="translate(-16.03 16.51) rotate(-12.57)"/><path class="cls-1" d="M195.54,80.72c-.45,2-.18,3.75.61,3.93s1.77-1.31,2.22-3.3.17-3.76-.61-3.93S196,78.72,195.54,80.72Z"/><path class="cls-1" d="M69.32,87.29a.95.95,0,1,1-1.13-.71A.95.95,0,0,1,69.32,87.29Z"/><path class="cls-1" d="M194.59,87.29a.94.94,0,1,0,1.13-.71A.94.94,0,0,0,194.59,87.29Z"/><path class="cls-1" d="M101.42,116.7c-.29,2-1.14,3.6-1.91,3.5s-1.15-1.85-.87-3.89,1.15-3.6,1.91-3.5S101.71,114.66,101.42,116.7Z"/><path class="cls-1" d="M162.48,116.7c.29,2,1.15,3.6,1.91,3.5s1.16-1.85.87-3.89-1.14-3.6-1.91-3.5S162.2,114.66,162.48,116.7Z"/><path class="cls-1" d="M101.91,110a1,1,0,1,1-1-.92A1,1,0,0,1,101.91,110Z"/><path class="cls-1" d="M162,110a1,1,0,0,0,.92,1.05,1,1,0,0,0,1.05-.92,1,1,0,1,0-2-.13Z"/><path class="cls-1" d="M121.15,55.11c.37.63-.67,1.92-2.33,2.87s-3.28,1.22-3.65.58.68-1.92,2.33-2.88S120.78,54.47,121.15,55.11Z"/><path class="cls-1" d="M142.76,55.11c-.37.63.67,1.92,2.32,2.87s3.29,1.22,3.65.58-.67-1.92-2.32-2.88S143.12,54.47,142.76,55.11Z"/><path class="cls-1" d="M113.78,60.11a1.06,1.06,0,1,1-2.11,0,1.06,1.06,0,0,1,2.11,0Z"/><path class="cls-1" d="M150.13,60.11a1.05,1.05,0,1,0,1.05-1A1.06,1.06,0,0,0,150.13,60.11Z"/><text class="cls-13" transform="matrix(1, -0.05, 0, 1, 7.02, 167.95)">BOUNCE</text><text class="cls-14" transform="matrix(1, -0.05, 0, 1, 7.02, 167.95)">BOUNCE</text><text class="cls-15" transform="matrix(1, -0.05, 0, 1, 7.02, 167.95)">BOUNCE</text><text class="cls-16" transform="matrix(1, -0.03, -0.04, 1, 53.1, 191.64)">UNLIMITED FUN</text></g></g></svg>